<?xml version="1.0" encoding="UTF-8" standalone="no"?>
<svg
   xmlns:dc="http://purl.org/dc/elements/1.1/"
   xmlns:cc="http://creativecommons.org/ns#"
   xmlns:rdf="http://www.w3.org/1999/02/22-rdf-syntax-ns#"
   xmlns:svg="http://www.w3.org/2000/svg"
   xmlns="http://www.w3.org/2000/svg"
   xmlns:sodipodi="http://sodipodi.sourceforge.net/DTD/sodipodi-0.dtd"
   xmlns:inkscape="http://www.inkscape.org/namespaces/inkscape"
   sodipodi:docname="drawing.svg"
   inkscape:version="1.0 (4035a4fb49, 2020-05-01)"
   id="svg8"
   version="1.1"
   viewBox="0 0 210 297"
   height="297mm"
   width="210mm">
  <defs
     id="defs2" />
  <sodipodi:namedview
     inkscape:window-maximized="1"
     inkscape:window-y="-8"
     inkscape:window-x="1912"
     inkscape:window-height="697"
     inkscape:window-width="1280"
     showgrid="false"
     inkscape:document-rotation="0"
     inkscape:current-layer="layer1"
     inkscape:document-units="mm"
     inkscape:cy="665.91779"
     inkscape:cx="391.23754"
     inkscape:zoom="1.4"
     inkscape:pageshadow="2"
     inkscape:pageopacity="0.0"
     borderopacity="1.0"
     bordercolor="#666666"
     pagecolor="#ffffff"
     id="base" />
  <metadata
     id="metadata5">
    <rdf:RDF>
      <cc:Work
         rdf:about="">
        <dc:format>image/svg+xml</dc:format>
        <dc:type
           rdf:resource="http://purl.org/dc/dcmitype/StillImage" />
        <dc:title></dc:title>
      </cc:Work>
    </rdf:RDF>
  </metadata>
  <g
     id="layer1"
     inkscape:groupmode="layer"
     inkscape:label="Layer 1">
    <circle
       r="0.099906191"
       cy="46.113091"
       cx="291.79761"
       style="fill:#000000;stroke:#000000;stroke-width:0.264583"
       id="path10" />
    <circle
       r="0.056515474"
       cy="40.624966"
       cx="49.712132"
       style="fill:#3371ff;stroke:#000000;stroke-width:0.264583;fill-opacity:0.60000002"
       id="path32" />
    <circle
       r="0.056515474"
       cy="174.79427"
       cx="-0.53453904"
       style="fill:#3371ff;stroke:#000000;stroke-width:0.264583"
       id="path857" />
    <path
       d="m 9.3944407,149.76365 c 1.9488233,-2.0967 3.7682553,-4.31243 5.6329763,-6.48418 -1.269416,0.70937 2.356783,-2.15265 1.670199,-1.73615 -0.511569,0.31033 -1.096712,0.60099 -1.410134,1.11066 -0.161511,0.26265 0.148865,0.60191 0.167761,0.90966 0.09446,1.53859 -0.05998,2.82413 -0.171947,4.37712 -0.43395,4.31376 -1.11361,8.60172 -1.476413,12.92282 -0.172276,2.05186 -0.229886,3.66188 -0.324645,5.69826 -0.04395,1.82512 -0.03885,3.65111 0.07023,5.4738 0.02037,0.34037 0.02799,0.68258 0.07669,1.02007 0.0227,0.15729 -0.01324,0.51022 0.136441,0.45683 0.789036,-0.28146 1.442852,-0.85168 2.164278,-1.27752 0.129552,-0.88155 0.221009,-1.46717 0.328162,-2.38749 0.367474,-3.15618 0.133794,-1.72258 0.629585,-5.17224 0.410218,-2.85426 0.581387,-3.73576 1.074898,-6.62213 1.016964,-5.52363 1.84965,-11.07726 2.690514,-16.62948 0.0937,-0.28338 0.574922,-0.90261 0.281103,-0.85014 -0.632139,0.1129 -1.156319,0.61285 -1.592288,1.08431 -0.104432,0.11293 0.156934,0.26662 0.209321,0.41124 0.316878,0.87479 0.513346,1.82246 0.726362,2.72027 0.162853,0.68638 0.322678,1.37348 0.484016,2.06021 0.529848,1.95974 0.928634,3.98211 1.700515,5.86948 0.243651,0.59577 0.563315,1.62713 1.409483,1.73516 0.301319,0.0385 0.582742,-0.17177 0.874113,-0.25765 0.849533,-0.63576 1.777411,-1.17847 2.5486,-1.90728 0.258246,-0.24406 1.013116,-1.90083 1.157218,-2.21499 0.133244,-0.29049 0.516017,-1.25853 0.777259,-1.57962 0.07652,-0.0941 0.205946,-0.12803 0.308922,-0.19205 -0.57317,0.37071 -1.204219,0.66444 -1.719509,1.11212 -0.07276,0.0632 0.121751,0.1503 0.17126,0.233 0.203991,0.34076 0.428284,1.04848 0.771086,1.26107 0.163761,0.10156 0.372454,0.099 0.558681,0.14853 1.567738,-0.46302 1.36593,-0.32335 3.4144,-2.0155 0.396354,-0.32741 0.656632,-0.79202 0.960318,-1.20683 1.017135,-1.38932 1.898354,-2.87939 2.802972,-4.34243 0.215562,-0.32985 1.027906,-1.08922 0.646684,-0.98954 -2.117534,0.55367 -1.425093,0.99483 -1.43184,2.17145 -0.0037,0.64412 -0.04328,1.28868 -0.111839,1.92915 -0.224243,2.09468 -0.571233,3.72399 -0.958088,5.81164 -0.950286,5.17226 -2.259812,10.29055 -2.913735,15.51492 -0.08817,0.70445 -0.140774,1.4129 -0.211161,2.11936 -0.03879,1.08845 -0.138271,1.8877 0.05809,2.94485 0.05675,0.30552 0.09116,0.64424 0.283995,0.88792 0.146487,0.18511 0.425278,0.3698 0.646822,0.28831 2.596306,-0.95498 2.551615,-1.26683 3.98753,-3.01805 2.289821,-3.24725 4.274309,-6.69907 6.168091,-10.18861 0.0449,-0.0182 0.174755,-0.0819 0.134694,-0.0547 -0.717521,0.48818 -1.541748,0.84004 -2.169615,1.43916 -0.213294,0.20352 -0.159533,0.56769 -0.23282,0.85325 -0.257522,1.00345 -0.440669,1.93986 -0.568619,2.96666 0.02969,0.38014 -0.06249,1.00831 0.423916,1.22711 0.459832,0.20684 1.255053,-0.093 1.620837,-0.28423 2.025973,-1.0593 2.133484,-1.16745 3.491683,-2.11113 0.223591,-0.15586 0.908962,-0.60006 0.670771,-0.46758 -0.476821,0.26521 -0.971589,0.51483 -1.388501,0.86679 -0.06277,0.053 0.08106,0.14772 0.09007,0.22936 0.02551,0.23115 0.02455,0.46532 0.01222,0.69754 -0.04122,0.7762 -0.151908,1.54715 -0.225846,2.32091 -0.08618,1.16795 -0.53712,3.17339 0.558419,4.03724 0.227055,0.17903 0.506799,0.32258 0.794891,0.3473 0.418023,0.0359 0.831233,-0.11475 1.246848,-0.17212 3.472135,-1.50418 6.567139,-3.74259 9.237046,-6.4096 1.935314,-1.9332 2.93102,-3.24356 4.695005,-5.37331 0.779516,-1.06016 1.601007,-2.09071 2.338544,-3.18049 2.264743,-3.34638 4.208621,-6.92593 5.736672,-10.66687 0.432837,-1.05965 0.84207,-2.13124 1.179507,-3.22502 0.283474,-0.91886 0.453533,-1.86894 0.680297,-2.80341 0.09087,-1.32281 0.438075,-2.47891 -0.298448,-3.68284 -0.199832,-0.32665 -0.514612,-0.64467 -0.888251,-0.72848 -0.470569,-0.10556 -0.998366,-0.003 -1.43175,0.20805 -3.056107,1.49182 -3.255426,1.96241 -5.337011,4.03862 -0.644269,0.85146 -1.339625,1.66657 -1.932803,2.55438 -3.125144,4.67741 -5.020923,9.87476 -6.312574,15.32051 -0.292039,1.23128 -0.495292,2.48194 -0.74294,3.72291 -0.181742,2.35894 -0.900128,5.35526 0.881301,7.3684 0.372097,0.42049 0.863404,0.78624 1.407292,0.92574 1.640787,0.42082 3.010498,-0.4159 4.462497,-0.97114 3.323389,-1.68533 6.177174,-3.98847 8.934225,-6.4518 1.145625,-1.02358 2.210985,-2.15536 3.415228,-3.11181 -0.772041,0.45389 -1.607817,0.81362 -2.31612,1.36168 -0.303064,0.2345 -0.441902,0.62616 -0.660069,0.94119 -0.623647,0.90053 -1.042421,1.44097 -1.494647,2.44612 -0.167317,0.37188 -0.347731,0.75075 -0.404426,1.15458 -0.04314,0.30726 0.07507,0.61599 0.112606,0.92398 0.278829,0.20487 0.52024,0.47424 0.836491,0.6146 0.855133,0.37953 1.900579,0.34387 2.793619,0.25758 1.918692,-0.1854 3.772284,-0.76251 5.609725,-1.30726 1.59362,-0.51196 3.170788,-1.08675 4.699024,-1.77178 0.362804,-0.16262 0.728107,-0.32258 1.074732,-0.51733 2.590207,-1.45523 1.932924,-0.87406 3.096413,-2.05904 0.02323,-0.18534 0.13334,-0.38041 0.06969,-0.55602 -0.214323,-0.59138 -0.954534,-0.76218 -1.464982,-0.84724 -1.049684,-0.17491 -1.821902,-0.0632 -2.839079,0.30695 -0.531736,0.1935 -1.016392,0.49769 -1.524588,0.74653 -1.823836,1.20532 -2.800831,1.54554 -4.012848,3.02791 -0.259231,0.31706 -0.520454,0.64722 -0.675465,1.0263 -0.318484,0.77883 -0.205087,1.27365 0.729136,1.48918 0.527653,0.12173 1.083024,-1.5e-4 1.624539,-2.2e-4 0.835705,-0.2601 1.709682,-0.41953 2.50712,-0.78029 1.242068,-0.56192 2.430566,-1.24396 3.581691,-1.9743 1.806361,-1.14605 3.585427,-2.34247 5.280054,-3.64808 2.52893,-1.9484 5.628428,-5.01811 7.813111,-7.33334 1.119863,-1.18677 2.172656,-2.43509 3.258991,-3.65264 1.76689,-2.24975 3.07418,-3.75088 4.52455,-6.15788 0.43237,-0.71757 0.85379,-1.45217 1.1424,-2.23864 0.1458,-0.39732 0.46024,-0.98258 0.14211,-1.26171 -0.3297,-0.28928 -0.91762,0.0237 -1.29121,0.25349 -1.31942,0.81168 -2.46495,1.87692 -3.69743,2.81538 -2.919578,3.17545 -5.435379,6.68626 -7.48836,10.48134 -1.147951,2.12206 -2.544496,4.87345 -2.790992,7.36605 -0.09752,0.98611 0.197202,1.972 0.295804,2.958 0.671404,0.67599 1.153216,1.62 2.014212,2.02795 1.217015,0.57664 2.616441,0.70512 3.959625,0.80252 3.696711,0.26808 7.174961,-0.44407 10.810771,-0.96048 0,0 1.0165,-0.76002 1.0165,-0.76002 v 0 c -3.63585,0.4858 -6.85235,1.14205 -10.528744,0.8179 -1.272688,-0.11221 -2.590107,-0.27733 -3.741859,-0.83031 -0.825992,-0.39658 -1.315514,-1.27577 -1.973271,-1.91365 -0.124505,-0.94987 -0.445743,-1.89434 -0.373517,-2.84961 0.184658,-2.44234 1.52659,-5.17903 2.644751,-7.24916 2.093801,-3.87643 4.73019,-7.41574 7.8078,-10.56449 0.16678,-0.34252 0.68877,-1.8439 1.49389,-1.46805 0.33093,0.15448 0.12857,0.74585 0.0228,1.0954 -0.22955,0.75819 -0.61488,1.46425 -1.00622,2.15302 -1.34526,2.36767 -2.60687,3.83394 -4.29345,6.03476 -2.760218,3.13361 -3.828219,4.49381 -6.955739,7.404 -1.325338,1.23324 -2.719422,2.39124 -4.112917,3.54692 -2.232138,1.85119 -3.407312,2.77046 -6.111171,3.98857 -0.743013,0.33473 -1.5573,0.48092 -2.33595,0.72138 -0.48999,0.01 -0.985362,0.10289 -1.469967,0.0298 -1.492462,-0.22516 -0.454319,-1.55165 0.0375,-2.14194 0.304914,-0.36595 0.761659,-0.60601 1.00602,-1.01489 0.06767,-0.11323 -0.263798,-0.004 -0.395695,-0.006 1.517912,-0.78693 2.396638,-1.3641 4.173831,-1.1058 0.293246,0.0426 1.089133,0.1786 1.236207,0.62397 0.04472,0.13543 -0.06187,0.27845 -0.0928,0.41768 -0.161631,0.15398 -0.707244,0.48185 -0.484894,0.46194 0.365675,-0.0327 1.321491,-0.63641 0.978247,-0.50612 -0.384773,0.14606 -0.730441,0.38004 -1.103575,0.55369 -1.539557,0.71648 -3.134521,1.31233 -4.747908,1.83856 -1.811657,0.54761 -3.630993,1.12169 -5.525423,1.30984 -0.88224,0.0876 -1.790266,0.11568 -2.635359,-0.21029 -0.271547,-0.10475 -0.490786,-0.313 -0.736179,-0.4695 -0.03981,-0.27054 -0.156535,-0.5407 -0.11942,-0.81162 0.156906,-1.1454 1.264217,-2.6421 1.9239,-3.54554 0.244837,-0.3353 1.084273,-0.75234 0.748035,-0.99591 -0.459616,-0.33294 -1.113875,0.21831 -1.670815,0.32747 -0.448003,0.44441 -0.8813,0.90361 -1.333862,1.34338 -2.354488,2.28792 -4.842457,4.44224 -7.571256,6.27706 -1.339585,0.53249 -2.697141,1.35553 -4.233468,1.0248 -0.527481,-0.11355 -1.017601,-0.43507 -1.395524,-0.82018 -1.838989,-1.87395 -1.231154,-4.80963 -1.107868,-7.10562 0.600432,-3.31607 0.709975,-4.48546 1.764426,-7.8047 1.261116,-3.96978 3.018523,-7.78233 5.406253,-11.20558 0.625858,-0.89728 1.358852,-1.71487 2.038281,-2.5723 0.645702,-0.61559 1.3179,-1.20454 1.93711,-1.84678 0.07012,-0.0727 0.02122,-0.24111 0.114141,-0.28075 0.408689,-0.17435 0.853067,-0.37474 1.294006,-0.31997 0.351343,0.0436 0.674177,0.30442 0.882949,0.59036 0.811662,1.11167 0.499332,2.1872 0.461081,3.47919 -0.200472,0.91459 -0.341146,1.84437 -0.601419,2.74378 -0.312259,1.07904 -0.697397,2.13724 -1.11307,3.18081 -1.492951,3.74814 -3.450416,7.30411 -5.733847,10.62763 -0.749924,1.09152 -1.582777,2.12367 -2.374164,3.1855 -0.81344,0.96406 -1.599176,1.9522 -2.440318,2.89218 -1.59257,1.77971 -2.795215,2.97482 -4.60347,4.47923 -0.662514,0.55119 -1.377746,1.03623 -2.049737,1.57582 -0.0633,0.0508 -0.08021,0.1512 -0.150852,0.19121 -0.505368,0.28618 -1.039564,0.51816 -1.559346,0.77724 -0.375695,0.0752 -0.743979,0.23129 -1.127085,0.2256 -0.258752,-0.004 -0.520658,-0.10658 -0.733888,-0.25321 -1.073513,-0.73821 -0.625176,-2.7995 -0.550614,-3.85747 0.04925,-0.42258 0.09557,-0.84552 0.147754,-1.26776 0.04599,-0.37219 0.119676,-0.74141 0.146743,-1.11545 0.01963,-0.27125 0.05268,-0.55051 -0.007,-0.81584 -0.0417,-0.18548 -0.105093,-0.5472 -0.287224,-0.49272 -0.969499,0.29003 -2.053751,1.09215 -2.943722,1.7211 -0.26964,0.18262 -1.115931,0.43924 -0.808921,0.54788 0.332189,0.11754 0.72236,-0.21973 0.928359,-0.50562 0.171387,-0.23785 -0.531619,0.25096 -0.810342,0.34183 -0.379936,0.12387 -0.746855,0.28621 -0.936961,-0.20869 -0.08497,-0.22121 -0.04568,-0.47174 -0.06852,-0.70761 0.122264,-1.05017 0.287764,-1.9165 0.586955,-2.93573 0.08712,-0.29678 0.578683,-0.7855 0.285152,-0.883 -2.118011,-0.70354 -1.994049,-0.22676 -1.85674,0.42291 -0.572852,1.27308 -1.227495,2.50868 -1.9123,3.72514 -0.778645,1.38314 -1.716773,2.96156 -2.602839,4.26899 -0.477557,0.70465 -0.997643,1.37952 -1.496465,2.06929 -0.455371,0.48954 -1.113723,0.8495 -1.366115,1.46862 -0.128778,0.3159 0.741223,-0.13369 0.936067,-0.41371 0.112218,-0.16127 -0.443913,0.0445 -0.581602,-0.0957 -0.204769,-0.20845 -0.248467,-0.53341 -0.315751,-0.81775 -0.236778,-1.00062 -0.168495,-1.8049 -0.172233,-2.84264 0.0478,-0.69174 0.07447,-1.38527 0.143401,-2.07523 0.189416,-1.89587 0.463894,-3.53677 0.79901,-5.42335 0.597088,-3.36136 1.31472,-6.69907 2.026508,-10.03747 0.310247,-1.54748 0.884904,-4.3136 1.132467,-5.91823 0.10405,-0.67442 0.20784,-1.35156 0.238214,-2.03328 0.01762,-0.39556 0.295887,-1.1201 -0.09487,-1.18406 -1.815629,-0.29719 -2.162543,0.72894 -2.796029,1.77326 -0.879859,1.47207 -1.750865,2.95758 -2.808375,4.31286 -0.326004,0.4178 -0.97309,0.67688 -1.03985,1.20261 -0.04077,0.32106 0.601338,-0.28299 0.924722,-0.29599 0.233836,-0.009 -0.427866,0.18974 -0.641797,0.28461 -0.15621,-0.007 -0.32801,0.0475 -0.468625,-0.0209 -0.325967,-0.15851 -0.575609,-0.94845 -0.741114,-1.25285 -0.06945,-0.12773 -0.09053,-0.40459 -0.231632,-0.36957 -0.76831,0.1907 -1.446474,0.64372 -2.16971,0.96558 -0.07287,0.0823 -0.162327,0.15242 -0.218612,0.24681 -0.199343,0.33433 -0.565661,1.27722 -0.689152,1.54827 -0.168982,0.3709 -0.335617,0.74381 -0.532343,1.10076 -0.201937,0.36642 -0.821563,0.67961 -0.661995,1.06635 0.132044,0.32004 0.67931,-0.13409 1.018965,-0.20115 -0.256152,0.13375 -0.479974,0.3845 -0.768455,0.40124 -0.880793,0.0511 -1.201001,-0.93321 -1.465649,-1.5191 -0.835122,-1.84887 -1.244929,-3.86592 -1.739733,-5.81965 -0.138975,-0.69853 -0.281148,-1.39643 -0.416925,-2.09559 -0.08163,-0.42036 -0.407435,-2.29014 -0.583882,-2.85444 -0.07431,-0.23767 -0.06779,-0.72779 -0.311929,-0.6788 -0.783469,0.15723 -1.496606,0.63454 -2.096727,1.16218 -0.20949,0.18418 -0.106307,0.54767 -0.15946,0.8215 -0.541735,5.52569 -1.336289,11.02282 -2.394565,16.47421 -0.503389,2.80171 -0.711846,3.89814 -1.16656,6.67259 -0.765421,4.67022 -0.132783,1.07576 -0.858554,5.28262 -0.08152,0.47256 -0.148693,0.94816 -0.253614,1.41607 -0.07345,0.32756 -0.187185,0.64476 -0.280778,0.96713 0.58934,-0.22562 1.240633,-0.33033 1.768021,-0.67687 0.113263,-0.0744 -0.162271,-0.22532 -0.19476,-0.3569 -0.07913,-0.32046 -0.09944,-0.65284 -0.135585,-0.98095 -0.195959,-1.77879 -0.243259,-3.56988 -0.252398,-5.35805 0.05576,-2.26833 0.05501,-3.31651 0.230248,-5.63888 0.328401,-4.35208 1.032206,-8.66083 1.597378,-12.98513 0.08282,-0.81692 0.399671,-3.57402 0.37022,-4.53804 -0.01225,-0.40103 0.186068,-1.14678 -0.213363,-1.18459 -1.762292,-0.1668 -2.898108,1.56603 -3.869759,2.64866 -1.893369,2.23495 -3.7634468,4.50381 -5.8542321,6.55891 0,0 2.0385682,-0.8444 2.0385682,-0.8444 z"
       id="path879"
       style="fill:#3371ff;fill-opacity:0.6;stroke-width:0.264583" />
    <path
       d="m 128.89727,150.38375 c 5.25901,-4.08284 10.89605,-7.6512 16.49541,-11.24241 0.57358,-0.36299 4.91333,-3.12606 5.78039,-3.61815 0.0365,-0.0207 -0.0349,0.11165 0.005,0.12595 0.14218,0.0515 0.51711,-0.0971 0.45193,0.0394 -0.18144,0.37975 -0.59595,0.59445 -0.89583,0.88976 -0.7499,0.73847 -1.50234,1.47436 -2.25351,2.21155 -7.81041,7.07055 -16.16508,13.52339 -23.79823,20.79401 -1.28356,1.22259 -2.51523,2.49853 -3.77284,3.74779 -1.91592,2.11647 -3.3823,3.5949 -5.015,5.86752 -0.46007,0.64038 -0.89318,1.3054 -1.24781,2.00967 -0.1146,0.22761 -1.02644,1.84732 0.0524,2.08058 0.51107,0.1105 1.03416,-0.1553 1.55124,-0.23295 6.78101,-3.2006 12.47051,-8.17863 18.08634,-13.05234 0.82172,-0.74849 2.71513,-2.37286 3.48595,-3.38736 0.1927,-0.25361 0.52156,-0.57558 0.39749,-0.86894 -0.11225,-0.26539 -0.56372,-0.25359 -0.84403,-0.18684 -0.61659,0.14681 -1.17254,0.48909 -1.7256,0.79869 -1.24915,0.69926 -2.44932,1.48262 -3.67397,2.22394 -2.09047,1.54197 -2.30262,1.62211 -4.2451,3.36239 -0.60567,0.54262 -1.21721,1.08272 -1.76787,1.68109 -0.11616,0.12622 -1.6959,1.56289 -0.99369,2.2767 0.25346,0.25764 0.69665,0.19273 1.04497,0.2891 0.65615,-0.16264 1.3252,-0.28007 1.96846,-0.48793 0.88111,-0.28472 1.73615,-0.64503 2.59659,-0.98719 1.68491,-0.67004 3.56195,-1.49073 5.23858,-2.19817 0.69896,-0.29492 1.3897,-0.6109 2.10008,-0.87717 0.48923,-0.18337 0.99677,-0.31358 1.49516,-0.47037 0.29993,-0.0291 0.60313,-0.14007 0.89979,-0.0872 0.4901,0.0873 0.22128,0.78106 0.17144,0.96715 -0.28062,1.04794 -0.76543,2.05048 -1.17144,3.05305 0.0281,0.36852 -0.11111,1.50641 0.79196,1.36982 2.04805,-0.30977 6.95405,-3.593 7.70544,-4.08365 2.70773,-1.7681 6.75364,-4.91897 9.28203,-6.83996 4.6471,-3.74521 5.01659,-3.96245 9.45751,-7.85538 1.3434,-1.17763 2.68408,-2.35939 3.98481,-3.58398 1.75214,-1.64958 3.9912,-3.74936 5.2639,-5.89418 0.38778,-0.65351 0.53686,-1.42181 0.80528,-2.13271 -0.14009,-0.48051 -0.01,-1.15481 -0.42027,-1.44152 -1.4728,-1.02929 -5.14088,0.30371 -6.05053,0.63775 -1.99755,0.73353 -3.92719,1.64649 -5.83839,2.58223 -6.51389,3.18926 -8.46369,4.62199 -14.92012,8.5876 -6.06216,4.15785 -7.45806,4.96186 -13.08021,9.38452 -1.65422,1.30129 -3.29291,2.62559 -4.86399,4.02612 -1.20104,1.07067 -4.69287,4.17646 -5.28212,6.20483 -0.19183,0.66036 0.27196,1.34817 0.40794,2.02226 0.71114,0.38799 1.34165,0.99264 2.13343,1.16398 2.63947,0.57116 7.66391,-0.0832 9.98357,-0.38198 2.377,-0.30612 4.741,-0.70703 7.10606,-1.09478 1.95596,-0.32068 12.67539,-2.21554 14.55648,-2.54699 6.58467,-1.16285 13.18523,-2.228 19.8142,-3.1035 0,0 1.34829,-1.01013 1.34829,-1.01013 v 0 c -6.80911,1.1068 -13.6031,2.30055 -20.39074,3.53221 -2.44642,0.4263 -4.89234,0.85547 -7.33926,1.27891 -4.79921,0.83049 -9.23613,1.66007 -14.07701,2.19119 -2.36939,0.25996 -6.83489,0.72339 -9.44563,0.11816 -0.73426,-0.17022 -1.33075,-0.70822 -1.99613,-1.06232 -0.1796,-0.59892 -0.6806,-1.18778 -0.53878,-1.79675 0.4598,-1.97448 3.70214,-4.93504 4.81962,-5.95931 1.49671,-1.37186 3.06342,-2.66717 4.64956,-3.93456 5.49275,-4.38893 6.92395,-5.20158 12.90497,-9.30681 2.21128,-1.36582 4.37633,-2.80952 6.63387,-4.09747 3.24601,-1.85187 8.46867,-4.53148 12.14813,-5.82968 0.65287,-0.23034 4.27086,-1.42117 5.5482,-0.63159 0.38413,0.23745 0.32039,0.84445 0.48059,1.26668 -0.21468,0.66698 -0.30536,1.38754 -0.64404,2.00094 -1.15493,2.09173 -3.30587,4.14742 -4.96073,5.73496 -4.21668,4.04517 -8.73993,7.76771 -13.32664,11.38052 -4.28285,3.22808 -5.17028,3.99325 -9.56346,6.93521 -0.99744,0.66795 -3.24972,2.09957 -4.50699,2.38417 -0.79994,0.18108 -0.66649,-0.7655 -0.69423,-1.08707 0.27604,-0.69437 0.57492,-1.3798 0.83738,-2.07941 0.15595,-0.41569 0.94656,-2.13067 -0.0389,-2.32129 -0.33524,-0.0648 -0.6779,0.0827 -1.01685,0.12399 -0.53318,0.17695 -1.07557,0.32826 -1.59955,0.53084 -0.72968,0.28211 -1.43933,0.61356 -2.15827,0.92203 -1.80204,0.77318 -3.40075,1.48338 -5.23053,2.20204 -0.81986,0.32201 -1.63908,0.6488 -2.47685,0.92082 -0.58351,0.18946 -1.18773,0.30792 -1.78159,0.46189 -0.30123,-0.0312 -1.4014,0.13264 -1.04532,-0.73079 0.211,-0.51164 0.61079,-0.92832 0.9821,-1.33872 0.53354,-0.58973 1.12978,-1.12055 1.72254,-1.65072 1.92135,-1.71848 2.21155,-1.84523 4.30368,-3.35759 0.77111,-0.61389 0.57012,-0.50195 1.94845,-1.09915 0.20677,-0.0896 0.5188,-0.36377 0.65122,-0.18145 0.15101,0.20793 -0.10626,0.51779 -0.25448,0.72771 -0.72151,1.02181 -2.45662,2.52535 -3.25571,3.27068 -2.81694,2.47917 -5.64651,4.92205 -8.65457,7.17076 -0.99596,0.74454 -2.02028,1.45037 -3.03325,2.1716 -0.36644,0.2609 -0.71499,0.5505 -1.10493,0.77477 -0.69424,0.39927 -1.42686,0.72774 -2.14029,1.09161 -0.44364,0.11276 -0.87383,0.36271 -1.33093,0.33829 -0.22539,-0.012 -0.49533,-0.21239 -0.5172,-0.43704 -0.084,-0.86308 1.15976,-2.79023 1.44583,-3.21284 1.50525,-2.22367 2.89932,-3.65738 4.70706,-5.71705 1.2122,-1.22865 2.39585,-2.48613 3.63658,-3.68594 7.69035,-7.43671 16.17037,-13.98304 24.24699,-20.98074 0.8496,-0.78963 1.77415,-1.50561 2.5488,-2.36889 0.3508,-0.39094 0.75234,-0.83611 0.7968,-1.35948 0.0192,-0.22649 -0.47471,-0.087 -0.68187,0.007 -1.09588,0.49491 -2.12628,1.12507 -3.16506,1.73073 -0.67768,0.39512 -5.21389,3.3144 -5.5549,3.53298 -4.00509,2.58202 -3.42341,2.19335 -7.50485,4.88209 -3.24076,2.13492 -6.49096,4.26314 -9.58278,6.6123 0,0 1.99871,-0.79961 1.99871,-0.79961 z"
       id="path881"
       style="fill:#3371ff;fill-opacity:0.6;stroke-width:0.264583" />
    <circle
       r="0.019981239"
       cy="153.26935"
       cx="176.89285"
       style="fill:#3371ff;stroke:#000000;stroke-width:0.264583"
       id="path883" />
  </g>
</svg>
